<?xml version="1.0" encoding="utf-8"?>
<svg viewBox="0 0 600 960" xmlns="http://www.w3.org/2000/svg" xmlns:xlink="http://www.w3.org/1999/xlink">
  <defs/>
  <script/>
  <g class="c3r9">
    <text text-anchor="start" font-family="Helvetica, Arial, sans-serif" font-size="10" x="414" y="110" fill="#b2b2b2" style="white-space: pre;">7</text>
    <text text-anchor="start" font-family="Helvetica, Arial, sans-serif" font-size="10" x="398" y="125" fill="#b2b2b2" style="white-space: pre;">6</text>
    <text text-anchor="start" font-family="Helvetica, Arial, sans-serif" font-size="10" x="382" y="110" fill="#b2b2b2" style="white-space: pre;">5</text>
    <text text-anchor="start" font-family="Helvetica, Arial, sans-serif" font-size="10" x="366" y="125" fill="#b2b2b2" style="white-space: pre;">4</text>
    <text text-anchor="start" font-family="Helvetica, Arial, sans-serif" font-size="10" x="350" y="110" fill="#b2b2b2" style="white-space: pre;">3</text>
    <text text-anchor="start" font-family="Helvetica, Arial, sans-serif" font-size="10" x="334" y="125" fill="#b2b2b2" style="white-space: pre;">2</text>
    <text text-anchor="start" font-family="Helvetica, Arial, sans-serif" font-size="10" x="318" y="110" fill="#b2b2b2" style="white-space: pre;">1</text>
    <g class="r9 seats">
      <rect id="c3r9s7" height="20" width="16" x="410" y="80" stroke="#7f7f7f" fill="#e5e5e5"/>
      <rect id="c3r9s6" height="20" width="16" x="394" y="95" stroke="#7f7f7f" fill="#e5e5e5"/>
      <rect id="c3r9s5" height="20" width="16" x="378" y="80" stroke="#7f7f7f" fill="#e5e5e5"/>
      <rect id="c3r9s4" height="20" width="16" x="362" y="95" stroke="#7f7f7f" fill="#e5e5e5"/>
      <rect id="c3r9s3" height="20" width="16" x="346" y="80" stroke="#7f7f7f" fill="#e5e5e5"/>
      <rect id="c3r9s2" height="20" width="16" x="330" y="95" stroke="#7f7f7f" fill="#e5e5e5"/>
      <rect id="c3r9s1" height="20" width="16" x="314" y="80" stroke="#7f7f7f" fill="#e5e5e5"/>
      <image preserveAspectRatio="xMidYMid slice" id="c3r9s7" height="20" width="16" x="410" y="80" xlink:href=""/>
      <image preserveAspectRatio="xMidYMid slice" id="c3r9s6" height="20" width="16" x="394" y="95" xlink:href=""/>
      <image preserveAspectRatio="xMidYMid slice" id="c3r9s5" height="20" width="16" x="378" y="80" xlink:href=""/>
      <image preserveAspectRatio="xMidYMid slice" id="c3r9s4" height="20" width="16" x="362" y="95" xlink:href=""/>
      <image preserveAspectRatio="xMidYMid slice" id="c3r9s3" height="20" width="16" x="346" y="80" xlink:href=""/>
      <image preserveAspectRatio="xMidYMid slice" id="c3r9s2" height="20" width="16" x="330" y="95" xlink:href=""/>
      <image preserveAspectRatio="xMidYMid slice" id="c3r9s1" height="20" width="16" x="314" y="80" xlink:href=""/>
    </g>
  </g>
  <g class="c3r8">
    <text text-anchor="start" font-family="Helvetica, Arial, sans-serif" font-size="10" x="414" y="170" fill="#b2b2b2" style="white-space: pre;">7</text>
    <text text-anchor="start" font-family="Helvetica, Arial, sans-serif" font-size="10" x="398" y="185" fill="#b2b2b2" style="white-space: pre;">6</text>
    <text text-anchor="start" font-family="Helvetica, Arial, sans-serif" font-size="10" x="382" y="170" fill="#b2b2b2" style="white-space: pre;">5</text>
    <text text-anchor="start" font-family="Helvetica, Arial, sans-serif" font-size="10" x="366" y="185" fill="#b2b2b2" style="white-space: pre;">4</text>
    <text text-anchor="start" font-family="Helvetica, Arial, sans-serif" font-size="10" x="350" y="170" fill="#b2b2b2" style="white-space: pre;">3</text>
    <text text-anchor="start" font-family="Helvetica, Arial, sans-serif" font-size="10" x="334" y="185" fill="#b2b2b2" style="white-space: pre;">2</text>
    <text text-anchor="start" font-family="Helvetica, Arial, sans-serif" font-size="10" x="318" y="170" fill="#b2b2b2" style="white-space: pre;">1</text>
    <g class="r8 seats">
      <rect id="c3r8s7" height="20" width="16" x="410" y="140" stroke="#7f7f7f" fill="#e5e5e5"/>
      <rect id="c3r8s6" height="20" width="16" x="394" y="155" stroke="#7f7f7f" fill="#e5e5e5"/>
      <rect id="c3r8s5" height="20" width="16" x="378" y="140" stroke="#7f7f7f" fill="#e5e5e5"/>
      <rect id="c3r8s4" height="20" width="16" x="362" y="155" stroke="#7f7f7f" fill="#e5e5e5"/>
      <rect id="c3r8s3" height="20" width="16" x="346" y="140" stroke="#7f7f7f" fill="#e5e5e5"/>
      <rect id="c3r8s2" height="20" width="16" x="330" y="155" stroke="#7f7f7f" fill="#e5e5e5"/>
      <rect id="c3r8s1" height="20" width="16" x="314" y="140" stroke="#7f7f7f" fill="#e5e5e5"/>
      <image preserveAspectRatio="xMidYMid slice" id="c3r8s7" height="20" width="16" x="410" y="140" xlink:href=""/>
      <image preserveAspectRatio="xMidYMid slice" id="c3r8s6" height="20" width="16" x="394" y="155" xlink:href=""/>
      <image preserveAspectRatio="xMidYMid slice" id="c3r8s5" height="20" width="16" x="378" y="140" xlink:href=""/>
      <image preserveAspectRatio="xMidYMid slice" id="c3r8s4" height="20" width="16" x="362" y="155" xlink:href=""/>
      <image preserveAspectRatio="xMidYMid slice" id="c3r8s3" height="20" width="16" x="346" y="140" xlink:href=""/>
      <image preserveAspectRatio="xMidYMid slice" id="c3r8s2" height="20" width="16" x="330" y="155" xlink:href=""/>
      <image preserveAspectRatio="xMidYMid slice" id="c3r8s1" height="20" width="16" x="314" y="140" xlink:href=""/>
    </g>
  </g>
  <g class="c3r7">
    <text text-anchor="start" font-family="Helvetica, Arial, sans-serif" font-size="10" x="414" y="230" fill="#b2b2b2" style="white-space: pre;">7</text>
    <text text-anchor="start" font-family="Helvetica, Arial, sans-serif" font-size="10" x="398" y="245" fill="#b2b2b2" style="white-space: pre;">6</text>
    <text text-anchor="start" font-family="Helvetica, Arial, sans-serif" font-size="10" x="382" y="230" fill="#b2b2b2" style="white-space: pre;">5</text>
    <text text-anchor="start" font-family="Helvetica, Arial, sans-serif" font-size="10" x="366" y="245" fill="#b2b2b2" style="white-space: pre;">4</text>
    <text text-anchor="start" font-family="Helvetica, Arial, sans-serif" font-size="10" x="350" y="230" fill="#b2b2b2" style="white-space: pre;">3</text>
    <text text-anchor="start" font-family="Helvetica, Arial, sans-serif" font-size="10" x="334" y="245" fill="#b2b2b2" style="white-space: pre;">2</text>
    <text text-anchor="start" font-family="Helvetica, Arial, sans-serif" font-size="10" x="318" y="230" fill="#b2b2b2" style="white-space: pre;">1</text>
    <g class="r7 seats">
      <rect id="c3r7s7" height="20" width="16" x="410" y="200" stroke="#7f7f7f" fill="#e5e5e5"/>
      <rect id="c3r7s6" height="20" width="16" x="394" y="215" stroke="#7f7f7f" fill="#e5e5e5"/>
      <rect id="c3r7s5" height="20" width="16" x="378" y="200" stroke="#7f7f7f" fill="#e5e5e5"/>
      <rect id="c3r7s4" height="20" width="16" x="362" y="215" stroke="#7f7f7f" fill="#e5e5e5"/>
      <rect id="c3r7s3" height="20" width="16" x="346" y="200" stroke="#7f7f7f" fill="#e5e5e5"/>
      <rect id="c3r7s2" height="20" width="16" x="330" y="215" stroke="#7f7f7f" fill="#e5e5e5"/>
      <rect id="c3r7s1" height="20" width="16" x="314" y="200" stroke="#7f7f7f" fill="#e5e5e5"/>
      <image preserveAspectRatio="xMidYMid slice" id="c3r7s7" height="20" width="16" x="410" y="200" xlink:href=""/>
      <image preserveAspectRatio="xMidYMid slice" id="c3r7s6" height="20" width="16" x="394" y="215" xlink:href=""/>
      <image preserveAspectRatio="xMidYMid slice" id="c3r7s5" height="20" width="16" x="378" y="200" xlink:href=""/>
      <image preserveAspectRatio="xMidYMid slice" id="c3r7s4" height="20" width="16" x="362" y="215" xlink:href=""/>
      <image preserveAspectRatio="xMidYMid slice" id="c3r7s3" height="20" width="16" x="346" y="200" xlink:href=""/>
      <image preserveAspectRatio="xMidYMid slice" id="c3r7s2" height="20" width="16" x="330" y="215" xlink:href=""/>
      <image preserveAspectRatio="xMidYMid slice" id="c3r7s1" height="20" width="16" x="314" y="200" xlink:href=""/>
    </g>
  </g>
  <g class="c3r6">
    <text text-anchor="start" font-family="Helvetica, Arial, sans-serif" font-size="10" x="414" y="290" fill="#b2b2b2" style="white-space: pre;">7</text>
    <text text-anchor="start" font-family="Helvetica, Arial, sans-serif" font-size="10" x="398" y="305" fill="#b2b2b2" style="white-space: pre;">6</text>
    <text text-anchor="start" font-family="Helvetica, Arial, sans-serif" font-size="10" x="382" y="290" fill="#b2b2b2" style="white-space: pre;">5</text>
    <text text-anchor="start" font-family="Helvetica, Arial, sans-serif" font-size="10" x="366" y="305" fill="#b2b2b2" style="white-space: pre;">4</text>
    <text text-anchor="start" font-family="Helvetica, Arial, sans-serif" font-size="10" x="350" y="290" fill="#b2b2b2" style="white-space: pre;">3</text>
    <text text-anchor="start" font-family="Helvetica, Arial, sans-serif" font-size="10" x="334" y="305" fill="#b2b2b2" style="white-space: pre;">2</text>
    <text text-anchor="start" font-family="Helvetica, Arial, sans-serif" font-size="10" x="318" y="290" fill="#b2b2b2" style="white-space: pre;">1</text>
    <g class="r6 seats">
      <rect id="c3r6s7" height="20" width="16" x="410" y="260" stroke="#7f7f7f" fill="#e5e5e5"/>
      <rect id="c3r6s6" height="20" width="16" x="394" y="275" stroke="#7f7f7f" fill="#e5e5e5"/>
      <rect id="c3r6s5" height="20" width="16" x="378" y="260" stroke="#7f7f7f" fill="#e5e5e5"/>
      <rect id="c3r6s4" height="20" width="16" x="362" y="275" stroke="#7f7f7f" fill="#e5e5e5"/>
      <rect id="c3r6s3" height="20" width="16" x="346" y="260" stroke="#7f7f7f" fill="#e5e5e5"/>
      <rect id="c3r6s2" height="20" width="16" x="330" y="275" stroke="#7f7f7f" fill="#e5e5e5"/>
      <rect id="c3r6s1" height="20" width="16" x="314" y="260" stroke="#7f7f7f" fill="#e5e5e5"/>
      <image preserveAspectRatio="xMidYMid slice" id="c3r6s7" height="20" width="16" x="410" y="260" xlink:href=""/>
      <image preserveAspectRatio="xMidYMid slice" id="c3r6s6" height="20" width="16" x="394" y="275" xlink:href=""/>
      <image preserveAspectRatio="xMidYMid slice" id="c3r6s5" height="20" width="16" x="378" y="260" xlink:href=""/>
      <image preserveAspectRatio="xMidYMid slice" id="c3r6s4" height="20" width="16" x="362" y="275" xlink:href=""/>
      <image preserveAspectRatio="xMidYMid slice" id="c3r6s3" height="20" width="16" x="346" y="260" xlink:href=""/>
      <image preserveAspectRatio="xMidYMid slice" id="c3r6s2" height="20" width="16" x="330" y="275" xlink:href=""/>
      <image preserveAspectRatio="xMidYMid slice" id="c3r6s1" height="20" width="16" x="314" y="260" xlink:href=""/>
    </g>
  </g>
  <g class="c3r5">
    <text text-anchor="start" font-family="Helvetica, Arial, sans-serif" font-size="10" x="414" y="350" fill="#b2b2b2" style="white-space: pre;">7</text>
    <text text-anchor="start" font-family="Helvetica, Arial, sans-serif" font-size="10" x="398" y="365" fill="#b2b2b2" style="white-space: pre; font-size: 10px;">6</text>
    <text text-anchor="start" font-family="Helvetica, Arial, sans-serif" font-size="10" x="382" y="350" fill="#b2b2b2" style="white-space: pre;">5</text>
    <text text-anchor="start" font-family="Helvetica, Arial, sans-serif" font-size="10" x="366" y="365" fill="#b2b2b2" style="white-space: pre; font-size: 10px;">4</text>
    <text text-anchor="start" font-family="Helvetica, Arial, sans-serif" font-size="10" x="350" y="350" fill="#b2b2b2" style="white-space: pre;">3</text>
    <text text-anchor="start" font-family="Helvetica, Arial, sans-serif" font-size="10" x="334" y="365" fill="#b2b2b2" style="white-space: pre; font-size: 10px;">2</text>
    <text text-anchor="start" font-family="Helvetica, Arial, sans-serif" font-size="10" x="318" y="350" fill="#b2b2b2" style="white-space: pre;">1</text>
    <g class="r5 seats">
      <rect id="c3r5s7" height="20" width="16" x="410" y="320" stroke="#7f7f7f" fill="#e5e5e5"/>
      <rect id="c3r5s6" height="20" width="16" x="394" y="335" stroke="#7f7f7f" fill="#e5e5e5"/>
      <rect id="c3r5s5" height="20" width="16" x="378" y="320" stroke="#7f7f7f" fill="#e5e5e5"/>
      <rect id="c3r5s4" height="20" width="16" x="362" y="335" stroke="#7f7f7f" fill="#e5e5e5"/>
      <rect id="c3r5s3" height="20" width="16" x="346" y="320" stroke="#7f7f7f" fill="#e5e5e5"/>
      <rect id="c3r5s2" height="20" width="16" x="330" y="335" stroke="#7f7f7f" fill="#e5e5e5"/>
      <rect id="c3r5s1" height="20" width="16" x="314" y="320" stroke="#7f7f7f" fill="#e5e5e5"/>
      <image preserveAspectRatio="xMidYMid slice" id="c3r5s7" height="20" width="16" x="410" y="320" xlink:href=""/>
      <image preserveAspectRatio="xMidYMid slice" id="c3r5s6" height="20" width="16" x="394" y="335" xlink:href=""/>
      <image preserveAspectRatio="xMidYMid slice" id="c3r5s5" height="20" width="16" x="378" y="320" xlink:href=""/>
      <image preserveAspectRatio="xMidYMid slice" id="c3r5s4" height="20" width="16" x="362" y="335" xlink:href=""/>
      <image preserveAspectRatio="xMidYMid slice" id="c3r5s3" height="20" width="16" x="346" y="320" xlink:href=""/>
      <image preserveAspectRatio="xMidYMid slice" id="c3r5s2" height="20" width="16" x="330" y="335" xlink:href=""/>
      <image preserveAspectRatio="xMidYMid slice" id="c3r5s1" height="20" width="16" x="314" y="320" xlink:href=""/>
    </g>
  </g>
  <g class="c3r4">
    <text text-anchor="start" font-family="Helvetica, Arial, sans-serif" font-size="10" x="414" y="410" fill="#b2b2b2" style="white-space: pre;">7</text>
    <text text-anchor="start" font-family="Helvetica, Arial, sans-serif" font-size="10" x="398" y="425" fill="#b2b2b2" style="white-space: pre;">6</text>
    <text text-anchor="start" font-family="Helvetica, Arial, sans-serif" font-size="10" x="382" y="410" fill="#b2b2b2" style="white-space: pre;">5</text>
    <text text-anchor="start" font-family="Helvetica, Arial, sans-serif" font-size="10" x="366" y="425" fill="#b2b2b2" style="white-space: pre;">4</text>
    <text text-anchor="start" font-family="Helvetica, Arial, sans-serif" font-size="10" x="350" y="410" fill="#b2b2b2" style="white-space: pre;">3</text>
    <text text-anchor="start" font-family="Helvetica, Arial, sans-serif" font-size="10" x="334" y="425" fill="#b2b2b2" style="white-space: pre;">2</text>
    <text text-anchor="start" font-family="Helvetica, Arial, sans-serif" font-size="10" x="318" y="410" fill="#b2b2b2" style="white-space: pre;">1</text>
    <g class="r4 seats">
      <rect id="c3r4s7" height="20" width="16" x="410" y="380" stroke="#7f7f7f" fill="#e5e5e5"/>
      <rect id="c3r4s6" height="20" width="16" x="394" y="395" stroke="#7f7f7f" fill="#e5e5e5"/>
      <rect id="c3r4s5" height="20" width="16" x="378" y="380" stroke="#7f7f7f" fill="#e5e5e5"/>
      <rect id="c3r4s4" height="20" width="16" x="362" y="395" stroke="#7f7f7f" fill="#e5e5e5"/>
      <rect id="c3r4s3" height="20" width="16" x="346" y="380" stroke="#7f7f7f" fill="#e5e5e5"/>
      <rect id="c3r4s2" height="20" width="16" x="330" y="395" stroke="#7f7f7f" fill="#e5e5e5"/>
      <rect id="c3r4s1" height="20" width="16" x="314" y="380" stroke="#7f7f7f" fill="#e5e5e5"/>
      <image preserveAspectRatio="xMidYMid slice" id="c3r4s7" height="20" width="16" x="410" y="380" xlink:href=""/>
      <image preserveAspectRatio="xMidYMid slice" id="c3r4s6" height="20" width="16" x="394" y="395" xlink:href=""/>
      <image preserveAspectRatio="xMidYMid slice" id="c3r4s5" height="20" width="16" x="378" y="380" xlink:href=""/>
      <image preserveAspectRatio="xMidYMid slice" id="c3r4s4" height="20" width="16" x="362" y="395" xlink:href=""/>
      <image preserveAspectRatio="xMidYMid slice" id="c3r4s3" height="20" width="16" x="346" y="380" xlink:href=""/>
      <image preserveAspectRatio="xMidYMid slice" id="c3r4s2" height="20" width="16" x="330" y="395" xlink:href=""/>
      <image preserveAspectRatio="xMidYMid slice" id="c3r4s1" height="20" width="16" x="314" y="380" xlink:href=""/>
    </g>
  </g>
  <g class="c3r3">
    <text text-anchor="start" font-family="Helvetica, Arial, sans-serif" font-size="10" x="414" y="470" fill="#b2b2b2" style="white-space: pre;">7</text>
    <text text-anchor="start" font-family="Helvetica, Arial, sans-serif" font-size="10" x="398" y="485" fill="#b2b2b2" style="white-space: pre;">6</text>
    <text text-anchor="start" font-family="Helvetica, Arial, sans-serif" font-size="10" x="382" y="470" fill="#b2b2b2" style="white-space: pre;">5</text>
    <text text-anchor="start" font-family="Helvetica, Arial, sans-serif" font-size="10" x="366" y="485" fill="#b2b2b2" style="white-space: pre;">4</text>
    <text text-anchor="start" font-family="Helvetica, Arial, sans-serif" font-size="10" x="350" y="470" fill="#b2b2b2" style="white-space: pre;">3</text>
    <text text-anchor="start" font-family="Helvetica, Arial, sans-serif" font-size="10" x="334" y="485" fill="#b2b2b2" style="white-space: pre;">2</text>
    <text text-anchor="start" font-family="Helvetica, Arial, sans-serif" font-size="10" x="318" y="470" fill="#b2b2b2" style="white-space: pre;">1</text>
    <g class="r3 seats">
      <rect id="c3r3s7" height="20" width="16" x="410" y="440" stroke="#7f7f7f" fill="#e5e5e5"/>
      <rect id="c3r3s6" height="20" width="16" x="394" y="455" stroke="#7f7f7f" fill="#e5e5e5"/>
      <rect id="c3r3s5" height="20" width="16" x="378" y="440" stroke="#7f7f7f" fill="#e5e5e5"/>
      <rect id="c3r3s4" height="20" width="16" x="362" y="455" stroke="#7f7f7f" fill="#e5e5e5"/>
      <rect id="c3r3s3" height="20" width="16" x="346" y="440" stroke="#7f7f7f" fill="#e5e5e5"/>
      <rect id="c3r3s2" height="20" width="16" x="330" y="455" stroke="#7f7f7f" fill="#e5e5e5"/>
      <rect id="c3r3s1" height="20" width="16" x="314" y="440" stroke="#7f7f7f" fill="#e5e5e5"/>
      <image preserveAspectRatio="xMidYMid slice" id="c3r3s7" height="20" width="16" x="410" y="440" xlink:href=""/>
      <image preserveAspectRatio="xMidYMid slice" id="c3r3s6" height="20" width="16" x="394" y="455" xlink:href=""/>
      <image preserveAspectRatio="xMidYMid slice" id="c3r3s5" height="20" width="16" x="378" y="440" xlink:href=""/>
      <image preserveAspectRatio="xMidYMid slice" id="c3r3s4" height="20" width="16" x="362" y="455" xlink:href=""/>
      <image preserveAspectRatio="xMidYMid slice" id="c3r3s3" height="20" width="16" x="346" y="440" xlink:href=""/>
      <image preserveAspectRatio="xMidYMid slice" id="c3r3s2" height="20" width="16" x="330" y="455" xlink:href=""/>
      <image preserveAspectRatio="xMidYMid slice" id="c3r3s1" height="20" width="16" x="314" y="440" xlink:href=""/>
    </g>
  </g>
  <g class="c3r2">
    <text text-anchor="start" font-family="Helvetica, Arial, sans-serif" font-size="10" x="414" y="530" fill="#b2b2b2" style="white-space: pre;">7</text>
    <text text-anchor="start" font-family="Helvetica, Arial, sans-serif" font-size="10" x="398" y="545" fill="#b2b2b2" style="white-space: pre;">6</text>
    <text text-anchor="start" font-family="Helvetica, Arial, sans-serif" font-size="10" x="382" y="530" fill="#b2b2b2" style="white-space: pre;">5</text>
    <text text-anchor="start" font-family="Helvetica, Arial, sans-serif" font-size="10" x="366" y="545" fill="#b2b2b2" style="white-space: pre;">4</text>
    <text text-anchor="start" font-family="Helvetica, Arial, sans-serif" font-size="10" x="350" y="530" fill="#b2b2b2" style="white-space: pre;">3</text>
    <text text-anchor="start" font-family="Helvetica, Arial, sans-serif" font-size="10" x="334" y="545" fill="#b2b2b2" style="white-space: pre;">2</text>
    <text text-anchor="start" font-family="Helvetica, Arial, sans-serif" font-size="10" x="318" y="530" fill="#b2b2b2" style="white-space: pre;">1</text>
    <g class="r2 seats">
      <rect id="c3r2s7" height="20" width="16" x="410" y="500" stroke="#7f7f7f" fill="#e5e5e5"/>
      <rect id="c3r2s6" height="20" width="16" x="394" y="515" stroke="#7f7f7f" fill="#e5e5e5"/>
      <rect id="c3r2s5" height="20" width="16" x="378" y="500" stroke="#7f7f7f" fill="#e5e5e5"/>
      <rect id="c3r2s4" height="20" width="16" x="362" y="515" stroke="#7f7f7f" fill="#e5e5e5"/>
      <rect id="c3r2s3" height="20" width="16" x="346" y="500" stroke="#7f7f7f" fill="#e5e5e5"/>
      <rect id="c3r2s2" height="20" width="16" x="330" y="515" stroke="#7f7f7f" fill="#e5e5e5"/>
      <rect id="c3r2s1" height="20" width="16" x="314" y="500" stroke="#7f7f7f" fill="#e5e5e5"/>
      <image preserveAspectRatio="xMidYMid slice" id="c3r2s7" height="20" width="16" x="410" y="500" xlink:href=""/>
      <image preserveAspectRatio="xMidYMid slice" id="c3r2s6" height="20" width="16" x="394" y="515" xlink:href=""/>
      <image preserveAspectRatio="xMidYMid slice" id="c3r2s5" height="20" width="16" x="378" y="500" xlink:href=""/>
      <image preserveAspectRatio="xMidYMid slice" id="c3r2s4" height="20" width="16" x="362" y="515" xlink:href=""/>
      <image preserveAspectRatio="xMidYMid slice" id="c3r2s3" height="20" width="16" x="346" y="500" xlink:href=""/>
      <image preserveAspectRatio="xMidYMid slice" id="c3r2s2" height="20" width="16" x="330" y="515" xlink:href=""/>
      <image preserveAspectRatio="xMidYMid slice" id="c3r2s1" height="20" width="16" x="314" y="500" xlink:href=""/>
    </g>
  </g>
  <g class="c3r1">
    <text text-anchor="start" font-family="Helvetica, Arial, sans-serif" font-size="10" x="414" y="590" fill="#b2b2b2" style="white-space: pre;">7</text>
    <text text-anchor="start" font-family="Helvetica, Arial, sans-serif" font-size="10" x="398" y="605" fill="#b2b2b2" style="white-space: pre;">6</text>
    <text text-anchor="start" font-family="Helvetica, Arial, sans-serif" font-size="10" x="382" y="590" fill="#b2b2b2" style="white-space: pre;">5</text>
    <text text-anchor="start" font-family="Helvetica, Arial, sans-serif" font-size="10" x="366" y="605" fill="#b2b2b2" style="white-space: pre;">4</text>
    <text text-anchor="start" font-family="Helvetica, Arial, sans-serif" font-size="10" x="350" y="590" fill="#b2b2b2" style="white-space: pre;">3</text>
    <text text-anchor="start" font-family="Helvetica, Arial, sans-serif" font-size="10" x="334" y="605" fill="#b2b2b2" style="white-space: pre;">2</text>
    <text text-anchor="start" font-family="Helvetica, Arial, sans-serif" font-size="10" x="318" y="590" fill="#b2b2b2" style="white-space: pre;">1</text>
    <g class="r1 seats">
      <rect id="c3r1s7" height="20" width="16" x="410" y="560" stroke="#7f7f7f" fill="#e5e5e5"/>
      <rect id="c3r1s6" height="20" width="16" x="394" y="575" stroke="#7f7f7f" fill="#e5e5e5"/>
      <rect id="c3r1s5" height="20" width="16" x="378" y="560" stroke="#7f7f7f" fill="#e5e5e5"/>
      <rect id="c3r1s4" height="20" width="16" x="362" y="575" stroke="#7f7f7f" fill="#e5e5e5"/>
      <rect id="c3r1s3" height="20" width="16" x="346" y="560" stroke="#7f7f7f" fill="#e5e5e5"/>
      <rect id="c3r1s2" height="20" width="16" x="330" y="575" stroke="#7f7f7f" fill="#e5e5e5"/>
      <rect id="c3r1s1" height="20" width="16" x="314" y="560" stroke="#7f7f7f" fill="#e5e5e5"/>
      <image preserveAspectRatio="xMidYMid slice" id="c3r1s7" height="20" width="16" x="410" y="560" xlink:href=""/>
      <image preserveAspectRatio="xMidYMid slice" id="c3r1s6" height="20" width="16" x="394" y="575" xlink:href=""/>
      <image preserveAspectRatio="xMidYMid slice" id="c3r1s5" height="20" width="16" x="378" y="560" xlink:href=""/>
      <image preserveAspectRatio="xMidYMid slice" id="c3r1s4" height="20" width="16" x="362" y="575" xlink:href=""/>
      <image preserveAspectRatio="xMidYMid slice" id="c3r1s3" height="20" width="16" x="346" y="560" xlink:href=""/>
      <image preserveAspectRatio="xMidYMid slice" id="c3r1s2" height="20" width="16" x="330" y="575" xlink:href=""/>
      <image preserveAspectRatio="xMidYMid slice" id="c3r1s1" height="20" width="16" x="314" y="560" xlink:href=""/>
    </g>
  </g>
  <text fill="#cccccc" x="250" y="106" font-size="20" font-family="Helvetica, Arial, sans-serif" font-weight="bold" style="white-space: pre;">r9</text>
  <text fill="#cccccc" x="250" y="166" font-size="20" font-family="Helvetica, Arial, sans-serif" font-weight="bold" style="white-space: pre;">r8</text>
  <text fill="#cccccc" x="250" y="226" font-size="20" font-family="Helvetica, Arial, sans-serif" font-weight="bold" style="white-space: pre;">r7</text>
  <text fill="#cccccc" x="250" y="286" font-size="20" font-family="Helvetica, Arial, sans-serif" font-weight="bold" style="white-space: pre;">r6</text>
  <text fill="#cccccc" x="250" y="346" font-size="20" font-family="Helvetica, Arial, sans-serif" font-weight="bold" style="white-space: pre;">r5</text>
  <text fill="#cccccc" x="250" y="406" font-size="20" font-family="Helvetica, Arial, sans-serif" font-weight="bold" style="white-space: pre;">r4</text>
  <text fill="#cccccc" x="250" y="466" font-size="20" font-family="Helvetica, Arial, sans-serif" font-weight="bold" style="white-space: pre;">r3</text>
  <text fill="#cccccc" x="250" y="526" font-size="20" font-family="Helvetica, Arial, sans-serif" font-weight="bold" style="white-space: pre;">r2</text>
  <text fill="#cccccc" x="250" y="586" font-size="20" font-family="Helvetica, Arial, sans-serif" font-weight="bold" style="white-space: pre;">r1</text>
  <text fill="#cccccc" x="100" y="100" font-size="40" font-family="Helvetica, Arial, sans-serif" font-weight="bold" style="white-space: pre;">c3</text>
</svg>