<?xml version="1.0" encoding="UTF-8"?>
<svg viewBox="-100 0 700 500" xmlns="http://www.w3.org/2000/svg" xmlns:xlink="http://www.w3.org/1999/xlink" xmlns:bx="https://boxy-svg.com"><script xmlns=""/>
  <defs>
    <bx:guide x="246.404" y="347.264" angle="0"/>
  </defs>
  <g id="row2-0" transform="matrix(1.49196, 0, 0, 1.49196, -219.339645, 31.347363)" style="">
    <rect id="c1r2p1" height="20" width="16" y="80" x="100" stroke="#7f7f7f" fill="#e5e5e5"/>
    <image id="c1r2p1" height="20" width="16" y="80" x="100" preserveAspectRatio="xMidYMid slice" xlink:href=""/>
    <path d="M 104.157 107.049 L 104.157 106.375 Q 105.109 106.282 105.485 106.065 Q 105.861 105.848 106.047 105.037 L 106.74 105.037 L 106.74 112 L 105.803 112 L 105.803 107.049 Z" style="fill: rgb(178, 178, 178);"/>
    <rect id="c1r2p2" height="20" width="16" y="100" x="116" stroke="#7f7f7f" fill="#e5e5e5"/>
    <image id="c1r2p2" height="20" width="16" y="100" x="116" preserveAspectRatio="xMidYMid slice" xlink:href=""/>
    <path d="M 119.512 132 Q 119.561 131.097 119.886 130.428 Q 120.211 129.759 121.153 129.212 L 122.091 128.67 Q 122.721 128.304 122.974 128.045 Q 123.375 127.64 123.375 127.117 Q 123.375 126.507 123.009 126.148 Q 122.642 125.789 122.032 125.789 Q 121.129 125.789 120.782 126.473 Q 120.596 126.839 120.577 127.488 L 119.683 127.488 Q 119.698 126.575 120.02 125.999 Q 120.592 124.983 122.037 124.983 Q 123.238 124.983 123.792 125.633 Q 124.346 126.282 124.346 127.078 Q 124.346 127.918 123.756 128.514 Q 123.414 128.86 122.53 129.354 L 121.861 129.725 Q 121.383 129.988 121.109 130.228 Q 120.621 130.652 120.494 131.17 L 124.312 131.17 L 124.312 132 L 119.512 132 Z" style="fill: rgb(178, 178, 178);"/>
    <rect id="c1r2p3" height="20" width="16" y="80" x="132" stroke="#7f7f7f" fill="#e5e5e5"/>
    <image id="c1r2p3" height="20" width="16" y="80" x="132" preserveAspectRatio="xMidYMid slice" xlink:href=""/>
    <path d="M 137.798 112.19 Q 136.557 112.19 135.998 111.509 Q 135.439 110.828 135.439 109.852 L 136.357 109.852 Q 136.416 110.53 136.611 110.838 Q 136.953 111.39 137.846 111.39 Q 138.54 111.39 138.96 111.019 Q 139.38 110.647 139.38 110.062 Q 139.38 109.339 138.938 109.051 Q 138.496 108.763 137.71 108.763 Q 137.622 108.763 137.532 108.765 Q 137.441 108.768 137.348 108.772 L 137.348 107.996 Q 137.485 108.011 137.578 108.016 Q 137.671 108.021 137.778 108.021 Q 138.271 108.021 138.589 107.864 Q 139.145 107.591 139.145 106.888 Q 139.145 106.365 138.774 106.082 Q 138.403 105.799 137.91 105.799 Q 137.031 105.799 136.694 106.385 Q 136.509 106.707 136.484 107.303 L 135.615 107.303 Q 135.615 106.521 135.928 105.975 Q 136.465 104.998 137.817 104.998 Q 138.887 104.998 139.472 105.474 Q 140.058 105.95 140.058 106.854 Q 140.058 107.498 139.712 107.898 Q 139.497 108.147 139.155 108.289 Q 139.707 108.44 140.017 108.873 Q 140.327 109.305 140.327 109.93 Q 140.327 110.931 139.668 111.561 Q 139.009 112.19 137.798 112.19 Z" style="fill: rgb(178, 178, 178);"/>
    <rect id="c1r2p4" height="20" width="16" y="100" x="148" stroke="#7f7f7f" fill="#e5e5e5"/>
    <image id="c1r2p4" height="20" width="16" y="100" x="148" preserveAspectRatio="xMidYMid slice" xlink:href=""/>
    <path d="M 154.506 129.524 L 154.506 126.355 L 152.264 129.524 Z M 154.52 132 L 154.52 130.291 L 151.454 130.291 L 151.454 129.432 L 154.657 124.988 L 155.399 124.988 L 155.399 129.524 L 156.429 129.524 L 156.429 130.291 L 155.399 130.291 L 155.399 132 Z" style="fill: rgb(178, 178, 178);"/>
    <rect id="c1r2p5" height="20" width="16" y="80" x="164" stroke="#7f7f7f" fill="#e5e5e5"/>
    <image id="c1r2p5" height="20" width="16" y="80" x="164" preserveAspectRatio="xMidYMid slice" xlink:href=""/>
    <path d="M 168.435 110.218 Q 168.523 110.97 169.134 111.258 Q 169.446 111.404 169.856 111.404 Q 170.637 111.404 171.013 110.906 Q 171.389 110.408 171.389 109.803 Q 171.389 109.07 170.943 108.67 Q 170.496 108.27 169.871 108.27 Q 169.417 108.27 169.092 108.445 Q 168.767 108.621 168.538 108.934 L 167.776 108.89 L 168.308 105.125 L 171.941 105.125 L 171.941 105.975 L 168.968 105.975 L 168.67 107.918 Q 168.914 107.732 169.134 107.64 Q 169.524 107.479 170.037 107.479 Q 170.999 107.479 171.668 108.099 Q 172.337 108.719 172.337 109.671 Q 172.337 110.662 171.724 111.419 Q 171.111 112.176 169.768 112.176 Q 168.914 112.176 168.257 111.695 Q 167.6 111.214 167.522 110.218 Z" style="fill: rgb(178, 178, 178);"/>
    <rect id="c1r2p6" height="20" width="16" y="100" x="180" stroke="#7f7f7f" fill="#e5e5e5"/>
    <image id="c1r2p6" height="20" width="16" y="100" x="180" preserveAspectRatio="xMidYMid slice" xlink:href=""/>
    <path d="M 186.125 124.979 Q 187.297 124.979 187.758 125.586 Q 188.22 126.194 188.22 126.839 L 187.35 126.839 Q 187.272 126.424 187.101 126.189 Q 186.784 125.75 186.139 125.75 Q 185.402 125.75 184.968 126.431 Q 184.533 127.112 184.484 128.382 Q 184.787 127.938 185.246 127.718 Q 185.666 127.522 186.183 127.522 Q 187.062 127.522 187.717 128.084 Q 188.371 128.646 188.371 129.759 Q 188.371 130.711 187.751 131.446 Q 187.131 132.181 185.983 132.181 Q 185.002 132.181 184.289 131.436 Q 183.576 130.691 183.576 128.929 Q 183.576 127.625 183.893 126.717 Q 184.504 124.979 186.125 124.979 Z M 186.061 131.399 Q 186.755 131.399 187.099 130.933 Q 187.443 130.467 187.443 129.832 Q 187.443 129.295 187.136 128.809 Q 186.828 128.323 186.017 128.323 Q 185.451 128.323 185.024 128.699 Q 184.596 129.075 184.596 129.832 Q 184.596 130.496 184.985 130.948 Q 185.373 131.399 186.061 131.399 Z" style="fill: rgb(178, 178, 178);"/>
    <path d="M 219.637 104.355 L 216.531 104.355 L 216.531 110 L 213.592 110 L 213.592 95.605 L 220.652 95.605 Q 222.166 95.635 222.981 95.977 Q 223.797 96.318 224.363 96.982 Q 224.832 97.529 225.105 98.193 Q 225.379 98.857 225.379 99.707 Q 225.379 100.732 224.861 101.724 Q 224.344 102.715 223.152 103.125 Q 224.148 103.525 224.563 104.263 Q 224.979 105 224.979 106.514 L 224.979 107.48 Q 224.979 108.467 225.057 108.818 Q 225.174 109.375 225.604 109.639 L 225.604 110 L 222.293 110 Q 222.156 109.521 222.098 109.229 Q 221.98 108.623 221.971 107.988 L 221.951 106.65 Q 221.932 105.273 221.448 104.814 Q 220.965 104.355 219.637 104.355 Z M 221.463 101.738 Q 222.361 101.328 222.361 100.117 Q 222.361 98.809 221.492 98.359 Q 221.004 98.105 220.027 98.105 L 216.531 98.105 L 216.531 101.973 L 219.939 101.973 Q 220.955 101.973 221.463 101.738 Z M 233.391 98.721 Q 232.893 98.125 231.966 98.125 Q 230.696 98.125 230.237 99.072 Q 229.973 99.619 229.925 100.811 L 227.22 100.811 Q 227.288 99.004 227.874 97.891 Q 228.987 95.771 231.829 95.771 Q 234.075 95.771 235.403 97.017 Q 236.731 98.262 236.731 100.313 Q 236.731 101.885 235.794 103.105 Q 235.179 103.916 233.772 104.912 L 232.659 105.703 Q 231.614 106.445 231.228 106.777 Q 230.843 107.109 230.579 107.549 L 236.761 107.549 L 236.761 110 L 227.063 110 Q 227.102 108.477 227.718 107.217 Q 228.313 105.801 230.53 104.219 Q 232.454 102.842 233.02 102.246 Q 233.889 101.318 233.889 100.215 Q 233.889 99.316 233.391 98.721 Z" style="fill: rgb(204, 204, 204);"/>
  </g>
  <g id="row2-1" transform="matrix(1.49196, 0, 0, 1.49196, -73.406372, 38.545391)" style="">
    <rect id="c1r2p7" height="20" width="16" y="80" x="317.305" stroke="#7f7f7f" fill="#e5e5e5"/>
    <image id="c1r2p7" height="20" width="16" y="80" x="317.305" preserveAspectRatio="xMidYMid slice" xlink:href=""/>
    <path d="M 325.734 105.125 L 325.734 105.892 Q 325.398 106.219 324.839 107.029 Q 324.279 107.84 323.85 108.777 Q 323.425 109.69 323.205 110.442 Q 323.064 110.926 322.839 112 L 321.867 112 Q 322.199 109.998 323.332 108.016 Q 324.001 106.854 324.738 106.009 L 320.871 106.009 L 320.871 105.125 Z" style="fill: rgb(178, 178, 178);"/>
    <rect id="c1r2p8" height="20" width="16" y="100" x="333.305" stroke="#7f7f7f" fill="#e5e5e5"/>
    <image id="c1r2p8" height="20" width="16" y="100" x="333.305" preserveAspectRatio="xMidYMid slice" xlink:href=""/>
    <path d="M 339.225 127.938 Q 339.806 127.938 340.133 127.613 Q 340.46 127.288 340.46 126.839 Q 340.46 126.448 340.148 126.121 Q 339.835 125.794 339.195 125.794 Q 338.561 125.794 338.277 126.121 Q 337.994 126.448 337.994 126.888 Q 337.994 127.381 338.36 127.659 Q 338.727 127.938 339.225 127.938 Z M 339.278 131.399 Q 339.889 131.399 340.292 131.07 Q 340.694 130.74 340.694 130.086 Q 340.694 129.407 340.279 129.056 Q 339.864 128.704 339.215 128.704 Q 338.585 128.704 338.187 129.063 Q 337.789 129.422 337.789 130.057 Q 337.789 130.604 338.153 131.001 Q 338.517 131.399 339.278 131.399 Z M 338.028 128.274 Q 337.662 128.118 337.457 127.908 Q 337.071 127.518 337.071 126.893 Q 337.071 126.111 337.638 125.55 Q 338.204 124.988 339.244 124.988 Q 340.25 124.988 340.821 125.518 Q 341.393 126.048 341.393 126.756 Q 341.393 127.41 341.061 127.815 Q 340.875 128.045 340.484 128.265 Q 340.919 128.465 341.168 128.724 Q 341.632 129.212 341.632 129.993 Q 341.632 130.916 341.012 131.558 Q 340.392 132.2 339.259 132.2 Q 338.238 132.2 337.533 131.646 Q 336.827 131.092 336.827 130.037 Q 336.827 129.417 337.13 128.965 Q 337.433 128.514 338.028 128.274 Z" style="fill: rgb(178, 178, 178);"/>
    <rect id="c1r2p9" height="20" width="16" y="80" x="349.305" stroke="#7f7f7f" fill="#e5e5e5"/>
    <image id="c1r2p9" height="20" width="16" y="80" x="349.305" preserveAspectRatio="xMidYMid slice" xlink:href=""/>
    <path d="M 353.833 110.311 Q 353.872 111.038 354.395 111.316 Q 354.663 111.463 355 111.463 Q 355.63 111.463 356.074 110.938 Q 356.519 110.413 356.704 108.807 Q 356.411 109.271 355.979 109.458 Q 355.547 109.646 355.049 109.646 Q 354.038 109.646 353.45 109.017 Q 352.861 108.387 352.861 107.396 Q 352.861 106.443 353.443 105.721 Q 354.024 104.998 355.156 104.998 Q 356.685 104.998 357.266 106.375 Q 357.588 107.132 357.588 108.27 Q 357.588 109.554 357.202 110.545 Q 356.563 112.195 355.034 112.195 Q 354.009 112.195 353.477 111.658 Q 352.944 111.121 352.944 110.311 Z M 355.166 108.875 Q 355.689 108.875 356.121 108.531 Q 356.553 108.187 356.553 107.327 Q 356.553 106.556 356.165 106.177 Q 355.777 105.799 355.176 105.799 Q 354.531 105.799 354.153 106.231 Q 353.775 106.663 353.775 107.386 Q 353.775 108.069 354.107 108.472 Q 354.439 108.875 355.166 108.875 Z" style="fill: rgb(178, 178, 178);"/>
    <rect id="c1r2p10" height="20" width="16" y="100" x="365.305" stroke="#7f7f7f" fill="#e5e5e5"/>
    <image id="c1r2p10" height="20" width="16" y="100" x="365.305" preserveAspectRatio="xMidYMid slice" xlink:href=""/>
    <path d="M 369.462 127.049 L 369.462 126.375 Q 370.414 126.282 370.79 126.065 Q 371.166 125.848 371.352 125.037 L 372.045 125.037 L 372.045 132 L 371.108 132 L 371.108 127.049 Z M 376.769 125.008 Q 378.127 125.008 378.732 126.126 Q 379.201 126.99 379.201 128.494 Q 379.201 129.92 378.776 130.853 Q 378.161 132.19 376.764 132.19 Q 375.505 132.19 374.889 131.097 Q 374.377 130.184 374.377 128.646 Q 374.377 127.454 374.684 126.6 Q 375.26 125.008 376.769 125.008 Z M 376.759 131.39 Q 377.443 131.39 377.848 130.784 Q 378.254 130.179 378.254 128.528 Q 378.254 127.337 377.961 126.568 Q 377.668 125.799 376.823 125.799 Q 376.047 125.799 375.688 126.529 Q 375.329 127.259 375.329 128.68 Q 375.329 129.749 375.558 130.398 Q 375.91 131.39 376.759 131.39 Z" style="fill: rgb(178, 178, 178);"/>
    <path d="M 404.942 104.355 L 401.836 104.355 L 401.836 110 L 398.897 110 L 398.897 95.605 L 405.957 95.605 Q 407.471 95.635 408.286 95.977 Q 409.102 96.318 409.668 96.982 Q 410.137 97.529 410.41 98.193 Q 410.684 98.857 410.684 99.707 Q 410.684 100.732 410.166 101.724 Q 409.649 102.715 408.457 103.125 Q 409.453 103.525 409.868 104.263 Q 410.284 105 410.284 106.514 L 410.284 107.48 Q 410.284 108.467 410.362 108.818 Q 410.479 109.375 410.909 109.639 L 410.909 110 L 407.598 110 Q 407.461 109.521 407.403 109.229 Q 407.285 108.623 407.276 107.988 L 407.256 106.65 Q 407.237 105.273 406.753 104.814 Q 406.27 104.355 404.942 104.355 Z M 406.768 101.738 Q 407.666 101.328 407.666 100.117 Q 407.666 98.809 406.797 98.359 Q 406.309 98.105 405.332 98.105 L 401.836 98.105 L 401.836 101.973 L 405.244 101.973 Q 406.26 101.973 406.768 101.738 Z M 418.696 98.721 Q 418.198 98.125 417.271 98.125 Q 416.001 98.125 415.542 99.072 Q 415.279 99.619 415.23 100.811 L 412.525 100.811 Q 412.593 99.004 413.179 97.891 Q 414.292 95.771 417.134 95.771 Q 419.38 95.771 420.708 97.017 Q 422.036 98.262 422.036 100.313 Q 422.036 101.885 421.099 103.105 Q 420.484 103.916 419.077 104.912 L 417.964 105.703 Q 416.919 106.445 416.533 106.777 Q 416.148 107.109 415.884 107.549 L 422.066 107.549 L 422.066 110 L 412.368 110 Q 412.407 108.477 413.023 107.217 Q 413.618 105.801 415.835 104.219 Q 417.759 102.842 418.325 102.246 Q 419.195 101.318 419.195 100.215 Q 419.195 99.316 418.696 98.721 Z" style="fill: rgb(204, 204, 204);"/>
  </g>
  <g id="row1-0" transform="matrix(1.49196, 0, 0, 1.49196, -217.970688, 58.009953)" style="">
    <rect id="c1r1p2" height="20" width="16" y="164" x="116" stroke="#7f7f7f" fill="#e5e5e5"/>
    <image id="c1r1p2" height="20" width="16" y="164" x="116" preserveAspectRatio="xMidYMid slice" xlink:href=""/>
    <path d="M 104.157 171.049 L 104.157 170.375 Q 105.109 170.282 105.485 170.065 Q 105.861 169.848 106.047 169.037 L 106.74 169.037 L 106.74 176 L 105.803 176 L 105.803 171.049 Z" style="fill: rgb(178, 178, 178);"/>
    <rect id="c1r1p1" height="20" width="16" y="144" x="100" stroke="#7f7f7f" fill="#e5e5e5"/>
    <image id="c1r1p1" height="20" width="16" y="144" x="100" preserveAspectRatio="xMidYMid slice" xlink:href=""/>
    <path d="M 119.512 196 Q 119.561 195.097 119.886 194.428 Q 120.211 193.759 121.153 193.212 L 122.091 192.67 Q 122.721 192.304 122.974 192.045 Q 123.375 191.64 123.375 191.117 Q 123.375 190.507 123.009 190.148 Q 122.642 189.789 122.032 189.789 Q 121.129 189.789 120.782 190.473 Q 120.596 190.839 120.577 191.488 L 119.683 191.488 Q 119.698 190.575 120.02 189.999 Q 120.592 188.983 122.037 188.983 Q 123.238 188.983 123.792 189.633 Q 124.346 190.282 124.346 191.078 Q 124.346 191.918 123.756 192.514 Q 123.414 192.86 122.53 193.354 L 121.861 193.725 Q 121.383 193.988 121.109 194.228 Q 120.621 194.652 120.494 195.17 L 124.312 195.17 L 124.312 196 L 119.512 196 Z" style="fill: rgb(178, 178, 178);"/>
    <rect id="c1r1p3" height="20" width="16" y="144" x="132" stroke="#7f7f7f" fill="#e5e5e5"/>
    <image id="c1r1p3" height="20" width="16" y="144" x="132" preserveAspectRatio="xMidYMid slice" xlink:href=""/>
    <path d="M 137.798 176.19 Q 136.557 176.19 135.998 175.509 Q 135.439 174.828 135.439 173.852 L 136.357 173.852 Q 136.416 174.53 136.611 174.838 Q 136.953 175.39 137.846 175.39 Q 138.54 175.39 138.96 175.019 Q 139.38 174.647 139.38 174.062 Q 139.38 173.339 138.938 173.051 Q 138.496 172.763 137.71 172.763 Q 137.622 172.763 137.532 172.765 Q 137.441 172.768 137.348 172.772 L 137.348 171.996 Q 137.485 172.011 137.578 172.016 Q 137.671 172.021 137.778 172.021 Q 138.271 172.021 138.589 171.864 Q 139.145 171.591 139.145 170.888 Q 139.145 170.365 138.774 170.082 Q 138.403 169.799 137.91 169.799 Q 137.031 169.799 136.694 170.385 Q 136.509 170.707 136.484 171.303 L 135.615 171.303 Q 135.615 170.521 135.928 169.975 Q 136.465 168.998 137.817 168.998 Q 138.887 168.998 139.472 169.474 Q 140.058 169.95 140.058 170.854 Q 140.058 171.498 139.712 171.898 Q 139.497 172.147 139.155 172.289 Q 139.707 172.44 140.017 172.873 Q 140.327 173.305 140.327 173.93 Q 140.327 174.931 139.668 175.561 Q 139.009 176.19 137.798 176.19 Z" style="fill: rgb(178, 178, 178);"/>
    <rect id="c1r1p4" height="20" width="16" y="164" x="148" stroke="#7f7f7f" fill="#e5e5e5"/>
    <image id="c1r1p4" height="20" width="16" y="164" x="148" preserveAspectRatio="xMidYMid slice" xlink:href=""/>
    <path d="M 154.506 193.524 L 154.506 190.355 L 152.264 193.524 Z M 154.52 196 L 154.52 194.291 L 151.454 194.291 L 151.454 193.432 L 154.657 188.988 L 155.399 188.988 L 155.399 193.524 L 156.429 193.524 L 156.429 194.291 L 155.399 194.291 L 155.399 196 Z" style="fill: rgb(178, 178, 178);"/>
    <rect id="c1r1p5" height="20" width="16" y="144" x="164" stroke="#7f7f7f" fill="#e5e5e5"/>
    <image id="c1r1p5" height="20" width="16" y="144" x="164" preserveAspectRatio="xMidYMid slice" xlink:href=""/>
    <path d="M 168.435 174.218 Q 168.523 174.97 169.134 175.258 Q 169.446 175.404 169.856 175.404 Q 170.637 175.404 171.013 174.906 Q 171.389 174.408 171.389 173.803 Q 171.389 173.07 170.943 172.67 Q 170.496 172.27 169.871 172.27 Q 169.417 172.27 169.092 172.445 Q 168.767 172.621 168.538 172.934 L 167.776 172.89 L 168.308 169.125 L 171.941 169.125 L 171.941 169.975 L 168.968 169.975 L 168.67 171.918 Q 168.914 171.732 169.134 171.64 Q 169.524 171.479 170.037 171.479 Q 170.999 171.479 171.668 172.099 Q 172.337 172.719 172.337 173.671 Q 172.337 174.662 171.724 175.419 Q 171.111 176.176 169.768 176.176 Q 168.914 176.176 168.257 175.695 Q 167.6 175.214 167.522 174.218 Z" style="fill: rgb(178, 178, 178);"/>
    <rect id="c1r1p6" height="20" width="16" y="164" x="180" stroke="#7f7f7f" fill="#e5e5e5"/>
    <image id="c1r1p6" height="20" width="16" y="164" x="180" preserveAspectRatio="xMidYMid slice" xlink:href=""/>
    <path d="M 186.125 188.979 Q 187.297 188.979 187.758 189.586 Q 188.22 190.194 188.22 190.839 L 187.35 190.839 Q 187.272 190.424 187.101 190.189 Q 186.784 189.75 186.139 189.75 Q 185.402 189.75 184.968 190.431 Q 184.533 191.112 184.484 192.382 Q 184.787 191.938 185.246 191.718 Q 185.666 191.522 186.183 191.522 Q 187.062 191.522 187.717 192.084 Q 188.371 192.646 188.371 193.759 Q 188.371 194.711 187.751 195.446 Q 187.131 196.181 185.983 196.181 Q 185.002 196.181 184.289 195.436 Q 183.576 194.691 183.576 192.929 Q 183.576 191.625 183.893 190.717 Q 184.504 188.979 186.125 188.979 Z M 186.061 195.399 Q 186.755 195.399 187.099 194.933 Q 187.443 194.467 187.443 193.832 Q 187.443 193.295 187.136 192.809 Q 186.828 192.323 186.017 192.323 Q 185.451 192.323 185.024 192.699 Q 184.596 193.075 184.596 193.832 Q 184.596 194.496 184.985 194.948 Q 185.373 195.399 186.061 195.399 Z" style="fill: rgb(178, 178, 178);"/>
    <path d="M 219.637 164.355 L 216.531 164.355 L 216.531 170 L 213.592 170 L 213.592 155.605 L 220.652 155.605 Q 222.166 155.635 222.981 155.977 Q 223.797 156.318 224.363 156.982 Q 224.832 157.529 225.105 158.193 Q 225.379 158.857 225.379 159.707 Q 225.379 160.732 224.861 161.724 Q 224.344 162.715 223.152 163.125 Q 224.148 163.525 224.563 164.263 Q 224.979 165 224.979 166.514 L 224.979 167.48 Q 224.979 168.467 225.057 168.818 Q 225.174 169.375 225.604 169.639 L 225.604 170 L 222.293 170 Q 222.156 169.521 222.098 169.229 Q 221.98 168.623 221.971 167.988 L 221.951 166.65 Q 221.932 165.273 221.448 164.814 Q 220.965 164.355 219.637 164.355 Z M 221.463 161.738 Q 222.361 161.328 222.361 160.117 Q 222.361 158.809 221.492 158.359 Q 221.004 158.105 220.027 158.105 L 216.531 158.105 L 216.531 161.973 L 219.939 161.973 Q 220.955 161.973 221.463 161.738 Z M 234.007 170 L 231.155 170 L 231.155 160.234 L 227.825 160.234 L 227.825 158.34 Q 229.143 158.281 229.671 158.164 Q 230.511 157.979 231.038 157.422 Q 231.399 157.041 231.585 156.406 Q 231.692 156.025 231.692 155.84 L 234.007 155.84 Z" style="fill: rgb(204, 204, 204);"/>
  </g>
  <g id="row1-1" transform="matrix(1.49196, 0, 0, 1.49196, -41.619629, 38.545391)" style="">
    <rect id="c1r1p7" height="20" width="16" y="144" x="296" stroke="#7f7f7f" fill="#e5e5e5"/>
    <image id="c1r1p7" height="20" width="16" y="144" x="296" preserveAspectRatio="xMidYMid slice" xlink:href=""/>
    <path d="M 304.43 169.125 L 304.43 169.892 Q 304.093 170.219 303.534 171.029 Q 302.974 171.84 302.545 172.777 Q 302.12 173.69 301.9 174.442 Q 301.759 174.926 301.534 176 L 300.562 176 Q 300.894 173.998 302.027 172.016 Q 302.696 170.854 303.433 170.009 L 299.566 170.009 L 299.566 169.125 Z" style="fill: rgb(178, 178, 178);"/>
    <rect id="c1r1p8" height="20" width="16" y="164" x="312" stroke="#7f7f7f" fill="#e5e5e5"/>
    <image id="c1r1p8" height="20" width="16" y="164" x="312" preserveAspectRatio="xMidYMid slice" xlink:href=""/>
    <path d="M 317.92 191.938 Q 318.501 191.938 318.828 191.613 Q 319.155 191.288 319.155 190.839 Q 319.155 190.448 318.843 190.121 Q 318.53 189.794 317.89 189.794 Q 317.256 189.794 316.972 190.121 Q 316.689 190.448 316.689 190.888 Q 316.689 191.381 317.055 191.659 Q 317.422 191.938 317.92 191.938 Z M 317.973 195.399 Q 318.584 195.399 318.987 195.07 Q 319.389 194.74 319.389 194.086 Q 319.389 193.407 318.974 193.056 Q 318.559 192.704 317.91 192.704 Q 317.28 192.704 316.882 193.063 Q 316.484 193.422 316.484 194.057 Q 316.484 194.604 316.848 195.001 Q 317.212 195.399 317.973 195.399 Z M 316.723 192.274 Q 316.357 192.118 316.152 191.908 Q 315.766 191.518 315.766 190.893 Q 315.766 190.111 316.333 189.55 Q 316.899 188.988 317.939 188.988 Q 318.945 188.988 319.516 189.518 Q 320.088 190.048 320.088 190.756 Q 320.088 191.41 319.756 191.815 Q 319.57 192.045 319.18 192.265 Q 319.614 192.465 319.863 192.724 Q 320.327 193.212 320.327 193.993 Q 320.327 194.916 319.707 195.558 Q 319.087 196.2 317.954 196.2 Q 316.933 196.2 316.228 195.646 Q 315.522 195.092 315.522 194.037 Q 315.522 193.417 315.825 192.965 Q 316.128 192.514 316.723 192.274 Z" style="fill: rgb(178, 178, 178);"/>
    <rect id="c1r1p9" height="20" width="16" y="144" x="328" stroke="#7f7f7f" fill="#e5e5e5"/>
    <image id="c1r1p9" height="20" width="16" y="144" x="328" preserveAspectRatio="xMidYMid slice" xlink:href=""/>
    <path d="M 332.528 174.311 Q 332.567 175.038 333.09 175.316 Q 333.358 175.463 333.695 175.463 Q 334.325 175.463 334.769 174.938 Q 335.214 174.413 335.399 172.807 Q 335.106 173.271 334.674 173.458 Q 334.242 173.646 333.744 173.646 Q 332.733 173.646 332.145 173.017 Q 331.556 172.387 331.556 171.396 Q 331.556 170.443 332.138 169.721 Q 332.719 168.998 333.851 168.998 Q 335.38 168.998 335.961 170.375 Q 336.283 171.132 336.283 172.27 Q 336.283 173.554 335.897 174.545 Q 335.258 176.195 333.729 176.195 Q 332.704 176.195 332.172 175.658 Q 331.639 175.121 331.639 174.311 Z M 333.861 172.875 Q 334.384 172.875 334.816 172.531 Q 335.248 172.187 335.248 171.327 Q 335.248 170.556 334.86 170.177 Q 334.471 169.799 333.871 169.799 Q 333.226 169.799 332.848 170.231 Q 332.47 170.663 332.47 171.386 Q 332.47 172.069 332.802 172.472 Q 333.134 172.875 333.861 172.875 Z" style="fill: rgb(178, 178, 178);"/>
    <rect id="c1r1p10" height="20" width="16" y="164" x="344" stroke="#7f7f7f" fill="#e5e5e5"/>
    <image id="c1r1p10" height="20" width="16" y="164" x="344" preserveAspectRatio="xMidYMid slice" xlink:href=""/>
    <path d="M 348.157 191.049 L 348.157 190.375 Q 349.109 190.282 349.485 190.065 Q 349.861 189.848 350.047 189.037 L 350.74 189.037 L 350.74 196 L 349.803 196 L 349.803 191.049 Z M 355.464 189.008 Q 356.822 189.008 357.427 190.126 Q 357.896 190.99 357.896 192.494 Q 357.896 193.92 357.471 194.853 Q 356.856 196.19 355.459 196.19 Q 354.2 196.19 353.584 195.097 Q 353.072 194.184 353.072 192.646 Q 353.072 191.454 353.379 190.6 Q 353.955 189.008 355.464 189.008 Z M 355.454 195.39 Q 356.138 195.39 356.543 194.784 Q 356.949 194.179 356.949 192.528 Q 356.949 191.337 356.656 190.568 Q 356.363 189.799 355.518 189.799 Q 354.742 189.799 354.383 190.529 Q 354.024 191.259 354.024 192.68 Q 354.024 193.749 354.253 194.398 Q 354.605 195.39 355.454 195.39 Z" style="fill: rgb(178, 178, 178);"/>
    <path d="M 383.637 164.355 L 380.531 164.355 L 380.531 170 L 377.592 170 L 377.592 155.605 L 384.652 155.605 Q 386.166 155.635 386.981 155.977 Q 387.797 156.318 388.363 156.982 Q 388.832 157.529 389.105 158.193 Q 389.379 158.857 389.379 159.707 Q 389.379 160.732 388.861 161.724 Q 388.344 162.715 387.152 163.125 Q 388.148 163.525 388.563 164.263 Q 388.979 165 388.979 166.514 L 388.979 167.48 Q 388.979 168.467 389.057 168.818 Q 389.174 169.375 389.604 169.639 L 389.604 170 L 386.293 170 Q 386.156 169.521 386.098 169.229 Q 385.98 168.623 385.971 167.988 L 385.951 166.65 Q 385.932 165.273 385.448 164.814 Q 384.965 164.355 383.637 164.355 Z M 385.463 161.738 Q 386.361 161.328 386.361 160.117 Q 386.361 158.809 385.492 158.359 Q 385.004 158.105 384.027 158.105 L 380.531 158.105 L 380.531 161.973 L 383.939 161.973 Q 384.955 161.973 385.463 161.738 Z M 398.007 170 L 395.155 170 L 395.155 160.234 L 391.825 160.234 L 391.825 158.34 Q 393.143 158.281 393.671 158.164 Q 394.511 157.979 395.038 157.422 Q 395.399 157.041 395.585 156.406 Q 395.692 156.025 395.692 155.84 L 398.007 155.84 Z" style="fill: rgb(204, 204, 204);"/>
  </g>
  <g class="labels" transform="matrix(1.49196, 0, 0, 1.49196, -137.597427, -10.381174)" style="">
    <path d="M 240.916 60.053 L 242.491 60.053 C 242.995 60.053 243.386 60.176 243.663 60.422 C 243.953 60.677 244.099 61.038 244.099 61.507 C 244.099 61.945 243.971 62.296 243.717 62.559 C 243.457 62.822 243.078 62.954 242.578 62.954 L 241.948 62.954 L 241.948 64.522 L 240.916 64.522 L 240.916 60.053 Z M 241.948 60.897 L 241.948 62.11 L 242.316 62.11 C 242.57 62.11 242.756 62.054 242.872 61.943 C 242.984 61.831 243.04 61.683 243.04 61.5 C 243.04 61.313 242.984 61.168 242.872 61.065 C 242.756 60.953 242.564 60.897 242.296 60.897 L 241.948 60.897 Z M 247.302 64.522 L 246.967 63.678 L 245.279 63.678 L 244.937 64.522 L 243.865 64.522 L 245.668 60.053 L 246.612 60.053 L 248.374 64.522 L 247.302 64.522 Z M 245.58 62.887 L 246.686 62.887 L 246.137 61.386 L 245.58 62.887 Z M 251.138 60.924 L 250.166 60.924 L 250.166 64.522 L 249.135 64.522 L 249.135 60.924 L 248.163 60.924 L 248.163 60.053 L 251.138 60.053 L 251.138 60.924 Z M 252.713 60.053 L 252.713 61.755 L 254.495 61.755 L 254.495 60.053 L 255.527 60.053 L 255.527 64.522 L 254.495 64.522 L 254.495 62.626 L 252.713 62.626 L 252.713 64.522 L 251.681 64.522 L 251.681 60.053 L 252.713 60.053 Z M 260.541 60.053 L 260.541 60.924 L 259.094 60.924 L 259.094 61.788 L 260.434 61.788 L 260.434 62.659 L 259.094 62.659 L 259.094 64.522 L 258.062 64.522 L 258.062 60.053 L 260.541 60.053 Z M 261.32 60.053 L 262.352 60.053 L 262.352 64.522 L 261.32 64.522 L 261.32 60.053 Z M 264.383 64.522 L 263.351 64.522 L 263.351 60.053 L 264.249 60.053 L 266.674 62.934 L 266.674 60.053 L 267.706 60.053 L 267.706 64.522 L 266.808 64.522 L 264.383 61.628 L 264.383 64.522 Z M 268.684 60.053 L 270.098 60.053 C 270.848 60.053 271.436 60.259 271.86 60.67 C 272.288 61.085 272.503 61.619 272.503 62.271 C 272.503 62.918 272.3 63.445 271.894 63.852 C 271.451 64.299 270.863 64.522 270.131 64.522 L 268.684 64.522 L 268.684 60.053 Z M 269.716 60.924 L 269.716 63.651 L 269.991 63.651 C 270.428 63.651 270.767 63.551 271.009 63.35 C 271.299 63.109 271.445 62.749 271.445 62.271 C 271.445 61.874 271.322 61.552 271.076 61.306 C 270.821 61.051 270.459 60.924 269.991 60.924 L 269.716 60.924 Z M 275.799 60.053 L 275.799 60.924 L 274.305 60.924 L 274.305 61.788 L 275.725 61.788 L 275.725 62.659 L 274.305 62.659 L 274.305 63.651 L 275.799 63.651 L 275.799 64.522 L 273.273 64.522 L 273.273 60.053 L 275.799 60.053 Z M 276.631 60.053 L 278.199 60.053 C 278.681 60.053 279.061 60.183 279.338 60.442 C 279.597 60.692 279.727 61.025 279.727 61.44 C 279.727 61.82 279.61 62.124 279.378 62.351 C 279.199 62.521 278.991 62.635 278.755 62.693 L 280.129 64.522 L 278.869 64.522 L 277.663 62.76 L 277.663 64.522 L 276.631 64.522 L 276.631 60.053 Z M 277.663 60.857 L 277.663 62.083 L 277.898 62.083 C 278.179 62.083 278.384 62.018 278.514 61.889 C 278.626 61.777 278.682 61.632 278.682 61.453 C 278.682 61.257 278.612 61.105 278.474 60.998 C 278.348 60.904 278.158 60.857 277.904 60.857 L 277.663 60.857 Z" style="fill: rgb(178, 178, 178);"/>
    <line x1="242.173" y1="73.693" x2="277.627" y2="73.693" style="stroke: rgb(127, 127, 127); stroke-width: 2;"/>
    <line x1="222.298" y1="53.276" x2="242.882" y2="73.984" style="stroke: rgb(127, 127, 127); stroke-width: 2;"/>
    <line x1="276.984" y1="53.338" x2="297.568" y2="74.046" style="stroke: rgb(127, 127, 127); stroke-width: 2; transform-box: fill-box; transform-origin: 50% 50%;" transform="matrix(0, 1, -1, 0, -0.000002, -0.000002)"/>
  </g>
  <g class="labels" transform="matrix(-1.49196, 0, 0, -1.49196, 638.236546, 479.485662)" style="">
    <path d="M 239.707 57.24 L 241.074 57.24 C 241.592 57.24 241.972 57.354 242.213 57.582 C 242.428 57.787 242.535 58.068 242.535 58.426 C 242.535 58.649 242.486 58.839 242.387 58.995 C 242.298 59.143 242.173 59.252 242.012 59.324 C 242.262 59.364 242.467 59.464 242.628 59.625 C 242.82 59.817 242.916 60.083 242.916 60.423 C 242.916 60.793 242.8 61.095 242.568 61.327 C 242.305 61.581 241.912 61.709 241.389 61.709 L 239.707 61.709 L 239.707 57.24 Z M 240.726 58.044 L 240.726 59.056 L 240.893 59.056 C 241.125 59.056 241.299 59.013 241.416 58.928 C 241.537 58.843 241.597 58.711 241.597 58.533 C 241.597 58.372 241.539 58.247 241.422 58.158 C 241.324 58.082 241.145 58.044 240.886 58.044 L 240.726 58.044 Z M 240.726 59.82 L 240.726 60.905 L 240.973 60.905 C 241.353 60.905 241.608 60.844 241.737 60.724 C 241.836 60.634 241.885 60.509 241.885 60.349 C 241.885 60.192 241.838 60.071 241.744 59.987 C 241.623 59.875 241.378 59.82 241.007 59.82 L 240.726 59.82 Z M 246.645 61.709 L 246.31 60.865 L 244.621 60.865 L 244.28 61.709 L 243.208 61.709 L 245.01 57.24 L 245.955 57.24 L 247.717 61.709 L 246.645 61.709 Z M 244.923 60.074 L 246.028 60.074 L 245.479 58.573 L 244.923 60.074 Z M 250.984 57.582 L 250.522 58.332 C 250.285 58.118 250.034 58.011 249.771 58.011 C 249.574 58.011 249.429 58.062 249.336 58.165 C 249.26 58.241 249.222 58.334 249.222 58.446 C 249.222 58.548 249.255 58.631 249.322 58.694 C 249.345 58.712 249.367 58.728 249.389 58.744 C 249.412 58.76 249.443 58.776 249.483 58.794 C 249.523 58.812 249.557 58.826 249.584 58.838 C 249.611 58.849 249.657 58.867 249.724 58.892 C 249.791 58.916 249.845 58.935 249.885 58.949 L 250.22 59.076 C 250.501 59.183 250.705 59.297 250.83 59.418 C 251.049 59.623 251.158 59.9 251.158 60.248 C 251.158 60.712 251.026 61.081 250.763 61.354 C 250.472 61.657 250.05 61.809 249.496 61.809 C 249.157 61.809 248.862 61.746 248.612 61.622 C 248.389 61.51 248.17 61.347 247.955 61.133 L 248.491 60.396 C 248.643 60.548 248.782 60.661 248.907 60.737 C 249.081 60.844 249.269 60.898 249.47 60.898 C 249.662 60.898 249.818 60.846 249.939 60.744 C 250.046 60.654 250.099 60.534 250.099 60.382 C 250.099 60.257 250.048 60.15 249.945 60.061 C 249.865 59.993 249.691 59.911 249.423 59.813 L 249.054 59.686 C 248.764 59.582 248.556 59.464 248.431 59.33 C 248.252 59.142 248.163 58.883 248.163 58.553 C 248.163 58.147 248.293 57.812 248.552 57.548 C 248.82 57.276 249.188 57.14 249.657 57.14 C 250.144 57.14 250.587 57.287 250.984 57.582 Z M 254.432 57.24 L 254.432 58.111 L 252.938 58.111 L 252.938 58.975 L 254.359 58.975 L 254.359 59.846 L 252.938 59.846 L 252.938 60.838 L 254.432 60.838 L 254.432 61.709 L 251.906 61.709 L 251.906 57.24 L 254.432 57.24 Z M 258.494 60.382 L 258.494 61.568 C 258.177 61.728 257.849 61.809 257.51 61.809 C 256.781 61.809 256.196 61.592 255.754 61.16 C 255.289 60.708 255.057 60.143 255.057 59.464 C 255.057 58.794 255.289 58.233 255.754 57.783 C 256.196 57.354 256.752 57.14 257.422 57.14 C 257.753 57.14 258.11 57.222 258.494 57.387 L 258.494 58.58 C 258.195 58.262 257.847 58.104 257.449 58.104 C 257.083 58.104 256.779 58.22 256.538 58.453 C 256.257 58.725 256.116 59.069 256.116 59.485 C 256.116 59.891 256.246 60.219 256.505 60.469 C 256.755 60.719 257.076 60.845 257.469 60.845 C 257.84 60.845 258.181 60.69 258.494 60.382 Z M 262.28 61.709 L 261.945 60.865 L 260.257 60.865 L 259.915 61.709 L 258.843 61.709 L 260.645 57.24 L 261.59 57.24 L 263.352 61.709 L 262.28 61.709 Z M 260.558 60.074 L 261.664 60.074 L 261.114 58.573 L 260.558 60.074 Z M 264.681 61.709 L 263.65 61.709 L 264.367 57.24 L 265.224 57.24 L 266.336 59.913 L 267.449 57.24 L 268.306 57.24 L 269.023 61.709 L 267.991 61.709 L 267.636 59.042 L 266.517 61.709 L 266.155 61.709 L 265.037 59.042 L 264.681 61.709 Z M 269.792 57.24 L 271.366 57.24 C 271.871 57.24 272.262 57.363 272.539 57.609 C 272.829 57.863 272.974 58.224 272.974 58.694 C 272.974 59.132 272.847 59.482 272.592 59.746 C 272.333 60.009 271.954 60.141 271.453 60.141 L 270.823 60.141 L 270.823 61.709 L 269.792 61.709 L 269.792 57.24 Z M 270.823 58.084 L 270.823 59.297 L 271.192 59.297 C 271.447 59.297 271.632 59.241 271.748 59.129 C 271.859 59.017 271.915 58.87 271.915 58.687 C 271.915 58.499 271.859 58.354 271.748 58.252 C 271.632 58.14 271.44 58.084 271.172 58.084 L 270.823 58.084 Z" style="fill: rgb(178, 178, 178); transform-box: fill-box; transform-origin: 54.6677% 93.3542%;" transform="matrix(-1, 0, 0, -1, -0.000024, -0.000012)"/>
    <line x1="242.173" y1="73.693" x2="277.627" y2="73.693" style="stroke: rgb(127, 127, 127); stroke-width: 2;"/>
    <line x1="222.298" y1="53.276" x2="242.882" y2="73.984" style="stroke: rgb(127, 127, 127); stroke-width: 2;"/>
    <line x1="276.984" y1="53.338" x2="297.568" y2="74.046" style="stroke: rgb(127, 127, 127); stroke-width: 2; transform-box: fill-box; transform-origin: 50% 50%;" transform="matrix(0, 1, -1, 0, -0.000002, -0.000002)"/>
  </g>
</svg>